<?xml version="1.0" encoding="UTF-8"?>
<svg xmlns="http://www.w3.org/2000/svg" version="1.1" viewBox="0 0 518.9 563.7">
  <!-- Generator: Adobe Illustrator 28.7.1, SVG Export Plug-In . SVG Version: 1.2.0 Build 142)  -->
  <g>
    <g id="Layer_1">
      <g>
        <path d="M204.3,285.8v40.4c-22,21.4-44.1,42.8-66.3,64.1-10,9.6-21.4,6.3-31.9,1.2-14.8-7.2-23.8-20-30.6-35.4-5.8-15.2-8.8-31.2-2.5-47.8,4.8-12.6,13.9-19.6,27.2-20,34.7-1,69.5-1.7,104.2-2.4Z"/>
        <path d="M446.2,252.6c-5.1,12.4-13.9,19.3-27.4,19.6-31.9.8-63.7,1.6-95.5,2.3l82.1-108.8c6.1,1.5,12.3,4.7,17.7,9.6,9.3,8.3,15.6,17.2,22.1,32.9,4.4,12,7.7,27.9.9,44.5Z"/>
        <path d="M204.3,90v125.3c-18.6-19.6-37.1-39.2-55.5-58.9-7.5-8-6.7-20.8.8-32.9,8.1-13.1,19.5-22.2,33.4-27.2,7.1-3.3,14.2-5.4,21.4-6.3Z"/>
        <path d="M204.3,234.6v40.3c-36.5-.7-72.9-1.4-109.4-2.2-12.3-.3-17.1-9.9-21.9-18.1-12.1-29.5,6.3-73.8,34.6-86,12.5-5.4,23.5-3.6,33.2,5.4,18.7,17.5,37.2,35.3,55.8,53.1,2.6,2.5,5.2,5,7.8,7.5Z"/>
        <path d="M374,428.4c-1.2,3.7-3.2,7.4-5.9,11.2-8.1,11.3-17.2,18.2-33.4,25-12.7,6.1-27.1,7.9-42.2,4.6-15.7-3.5-24.8-14.1-25-30.3-.7-41.1-1.1-82.2-1.5-123.2,0-4.4-1-9.8,4.4-11.9,5-2,7.8,2.4,10.7,5.4.5.5.9,1,1.4,1.4l91.6,117.8Z"/>
        <path d="M204.3,345.7v124.8c-23.4-3.1-48-18.9-56.5-39.3-5.7-10.9-3.8-22.3,5-31.5,17.2-17.9,34.2-36.1,51.5-54.1Z"/>
        <path d="M372.5,131.6s-89.7,115.6-94.7,120.7c-2.6,2.6-5.6,5.5-9.8,3.6-3.8-1.7-3.6-5.7-3.5-9,.7-43.7,1-87.4,3-131,.6-12.1,8.6-18.5,18.3-22.6,29.1-12.3,73.4,6.3,85.7,35.9.4.8.7,1.6,1,2.4Z"/>
        <path d="M413.8,390.9l-81.6-104.9c28.7.6,57.4,1.2,86.2,1.6,14.2.2,23.3,6.2,27.3,19,12.5,23.6-2.8,70.3-31.9,84.3Z"/>
        <path d="M431.1,131.6c-3.3-3.8-6.8-7.5-10.4-11.1-7.6-7.6-15.6-14.6-24-20.9-39.4-29.8-87.1-45.9-137.3-45.9s-118.3,23.7-161.4,66.8c-43.1,43.1-66.8,100.4-66.8,161.4s23.7,118.2,66.8,161.3c43.1,43.1,100.4,66.8,161.4,66.8s100.5-17,140.5-48.3c7.3-5.7,14.2-11.9,20.9-18.5s12.4-13.2,18-20.2c31.7-40.1,48.9-89.3,48.9-141.1s-19.9-108.7-56.5-150.3ZM426,406.7c-11,14.7-24,27.9-38.4,39.2-35.3,27.7-79.8,44.1-128.2,44.1h0c-19.1,0-37.5-2.6-55.1-7.4-88.2-24.1-153-104.9-153-200.7S116.1,105.3,204.3,81.1c17.5-4.8,36-7.4,55.1-7.4h0c47,0,90.4,15.6,125.2,41.9,12.6,9.5,24,20.3,34.1,32.4,30.5,36.2,48.8,82.9,48.8,133.9s-15.5,90-41.6,124.8Z"/>
      </g>
    </g>
  </g>
</svg>