<?xml version="1.0" encoding="UTF-8"?>
<svg id="Layer_1" xmlns="http://www.w3.org/2000/svg" viewBox="0 0 1607.21 456.37">
  <defs>
    <style>
      .cls-1 {
        fill: #d6763a;
      }
    </style>
  </defs>
  <path class="cls-1" d="M173.07,232.08v40.36c-22.05,21.43-44.13,42.81-66.33,64.07-9.98,9.57-21.41,6.29-31.94,1.17-14.85-7.2-23.85-19.99-30.58-35.39-5.79-15.24-8.85-31.18-2.52-47.8,4.78-12.58,13.89-19.63,27.16-20.01,34.73-.99,69.47-1.7,104.22-2.4Z"/>
  <path class="cls-1" d="M414.92,198.92c-5.06,12.4-13.92,19.25-27.38,19.58-31.85.81-63.71,1.56-95.54,2.28l82.14-108.78c6.14,1.49,12.29,4.73,17.74,9.58,9.29,8.3,15.58,17.2,22.12,32.88,4.35,12.02,7.66,27.91.93,44.45Z"/>
  <path class="cls-1" d="M173.07,36.35v125.31c-18.58-19.56-37.12-39.17-55.5-58.91-7.46-8.01-6.65-20.8.75-32.87,8.06-13.13,19.48-22.24,33.38-27.19,7.13-3.29,14.21-5.43,21.36-6.34Z"/>
  <path class="cls-1" d="M173.07,180.9v40.25c-36.47-.65-72.93-1.37-109.41-2.16-12.34-.27-17.06-9.89-21.88-18.05-12.07-29.45,6.31-73.77,34.58-86.03,12.53-5.43,23.47-3.62,33.16,5.43,18.72,17.54,37.24,35.33,55.77,53.08,2.61,2.49,5.19,4.97,7.78,7.47Z"/>
  <path class="cls-1" d="M342.76,374.7c-1.22,3.69-3.21,7.42-5.95,11.25-8.09,11.3-17.2,18.21-33.41,24.98-12.67,6.14-27.14,7.87-42.17,4.56-15.74-3.48-24.76-14.09-25.03-30.28-.67-41.08-1.11-82.17-1.54-123.25-.03-4.42-.99-9.79,4.42-11.92,5.04-1.97,7.83,2.37,10.68,5.38.46.48.91.96,1.37,1.44l91.63,117.83Z"/>
  <path class="cls-1" d="M173.07,291.98v124.81c-23.44-3.12-48.02-18.93-56.54-39.28-5.71-10.9-3.75-22.3,5.04-31.48,17.23-17.95,34.24-36.12,51.5-54.05Z"/>
  <path class="cls-1" d="M341.3,77.9s-89.68,115.55-94.74,120.75c-2.57,2.64-5.59,5.45-9.75,3.58-3.82-1.73-3.62-5.66-3.55-8.98.67-43.68,1.01-87.37,3.03-131,.57-12.14,8.59-18.46,18.33-22.6,29.08-12.34,73.38,6.27,85.65,35.88.38.79.74,1.58,1.03,2.37Z"/>
  <path class="cls-1" d="M382.53,337.24l-81.59-104.85c28.73.6,57.45,1.22,86.18,1.56,14.2.17,23.33,6.19,27.26,18.98,12.55,23.62-2.78,70.32-31.85,84.31Z"/>
  <path class="cls-1" d="M399.9,77.89c-3.31-3.79-6.77-7.47-10.36-11.06-7.59-7.59-15.62-14.57-24.04-20.92C326.15,16.12,278.4,0,228.19,0c-60.95,0-118.26,23.73-161.36,66.83C23.73,109.93,0,167.22,0,228.19s23.73,118.24,66.83,161.34c43.1,43.1,100.41,66.84,161.36,66.84,51.57,0,100.55-17.01,140.5-48.35,7.27-5.69,14.23-11.86,20.86-18.5s12.43-13.17,17.97-20.2c31.68-40.08,48.86-89.29,48.86-141.15,0-55.89-19.94-108.69-56.47-150.3ZM394.77,352.98c-11.02,14.69-23.95,27.89-38.42,39.19-35.33,27.67-79.84,44.15-128.17,44.15h-.05c-19.06,0-37.53-2.57-55.07-7.39-88.21-24.14-153.03-104.87-153.03-200.74S84.86,51.59,173.07,27.43c17.54-4.82,36-7.39,55.07-7.39h.05c47.01,0,90.38,15.58,125.22,41.87,12.57,9.48,24.02,20.35,34.12,32.37,30.46,36.19,48.81,82.93,48.81,133.91,0,46.8-15.46,90.02-41.56,124.79Z"/>
  <g>
    <path d="M554.26,333.11h-25.7V118.98h25.7v94.83h7.04l82.29-94.83h31.81v1.84l-88.71,103.4v3.67l92.38,103.4v1.84h-32.43l-85.35-95.44h-7.04v95.44Z"/>
    <path d="M858.34,259.08c0,12.65-2.09,23.81-6.27,33.5-4.18,9.69-9.74,17.85-16.67,24.47-6.94,6.63-15.04,11.68-24.32,15.14-9.28,3.47-18.92,5.2-28.91,5.2s-19.88-1.74-29.06-5.2c-9.18-3.47-17.24-8.51-24.17-15.14-6.94-6.63-12.5-14.78-16.67-24.47-4.18-9.68-6.27-20.85-6.27-33.5v-3.67c0-12.44,2.09-23.5,6.27-33.19,4.18-9.68,9.79-17.9,16.83-24.63s15.14-11.83,24.32-15.3c9.18-3.47,18.76-5.2,28.75-5.2s19.58,1.74,28.76,5.2c9.18,3.47,17.28,8.57,24.32,15.3,7.04,6.73,12.64,14.94,16.83,24.63,4.18,9.69,6.27,20.75,6.27,33.19v3.67ZM782.16,314.76c7.34,0,14.12-1.27,20.34-3.82,6.22-2.55,11.67-6.27,16.37-11.17,4.69-4.89,8.36-10.75,11.01-17.59,2.65-6.83,3.98-14.53,3.98-23.1v-3.67c0-8.15-1.33-15.65-3.98-22.48-2.65-6.83-6.32-12.7-11.01-17.59-4.69-4.89-10.2-8.72-16.52-11.47-6.32-2.75-13.06-4.13-20.19-4.13s-13.87,1.38-20.19,4.13c-6.32,2.75-11.83,6.58-16.52,11.47-4.69,4.89-8.36,10.76-11.01,17.59-2.65,6.84-3.98,14.33-3.98,22.48v3.67c0,8.57,1.32,16.27,3.98,23.1,2.65,6.84,6.32,12.7,11.01,17.59,4.69,4.89,10.14,8.62,16.37,11.17,6.22,2.55,13,3.82,20.34,3.82Z"/>
    <path d="M992.63,333.11h-47.11l-52.92-151.73h28.14l46.5,140.72h3.67l46.5-140.72h28.14l-52.92,151.73Z"/>
    <path d="M1199.73,307.42h-3.67c-4.89,10.2-11.68,17.74-20.34,22.64-8.67,4.89-17.8,7.34-27.38,7.34s-19.27-1.68-27.84-5.05c-8.57-3.36-16.06-8.36-22.49-14.99-6.42-6.62-11.47-14.73-15.14-24.32-3.67-9.58-5.51-20.7-5.51-33.34v-4.89c0-12.44,1.84-23.45,5.51-33.04,3.67-9.58,8.72-17.69,15.14-24.32,6.42-6.63,13.92-11.67,22.49-15.14,8.56-3.47,17.64-5.2,27.23-5.2,10.4,0,19.83,2.29,28.3,6.88,8.46,4.59,15.14,11.68,20.04,21.26h3.67v-23.86h23.86v120.53c0,6.12,2.75,9.18,8.26,9.18h7.65v22.03h-16.21c-6.94,0-12.59-2.24-16.98-6.73-4.39-4.48-6.58-10.2-6.58-17.13v-1.84ZM1150.79,314.76c7.14,0,13.71-1.32,19.73-3.98,6.01-2.65,11.17-6.42,15.45-11.32,4.28-4.89,7.65-10.75,10.1-17.59,2.45-6.83,3.67-14.43,3.67-22.79v-3.67c0-8.15-1.22-15.65-3.67-22.48-2.45-6.83-5.87-12.7-10.25-17.59-4.39-4.89-9.59-8.72-15.6-11.47-6.02-2.75-12.5-4.13-19.43-4.13s-13.67,1.33-19.58,3.98c-5.92,2.65-11.07,6.38-15.45,11.17-4.39,4.79-7.8,10.61-10.25,17.44-2.45,6.84-3.67,14.33-3.67,22.48v4.89c0,17.34,4.54,30.85,13.61,40.53,9.07,9.69,20.85,14.53,35.33,14.53Z"/>
    <path d="M1271.62,181.38h47.72v-62.41h23.86v62.41h58.73v22.03h-58.73v98.5c0,6.12,2.75,9.18,8.26,9.18h43.13v22.03h-51.7c-6.94,0-12.59-2.24-16.98-6.73-4.39-4.48-6.58-10.2-6.58-17.13v-105.85h-47.72v-22.03Z"/>
    <path d="M1607.21,259.08c0,12.65-2.09,23.81-6.27,33.5-4.18,9.69-9.74,17.85-16.67,24.47-6.94,6.63-15.04,11.68-24.32,15.14-9.28,3.47-18.92,5.2-28.91,5.2s-19.88-1.74-29.06-5.2c-9.18-3.47-17.24-8.51-24.17-15.14-6.93-6.63-12.49-14.78-16.67-24.47-4.18-9.68-6.27-20.85-6.27-33.5v-3.67c0-12.44,2.09-23.5,6.27-33.19,4.18-9.68,9.79-17.9,16.83-24.63s15.14-11.83,24.32-15.3c9.18-3.47,18.76-5.2,28.76-5.2s19.58,1.74,28.76,5.2c9.18,3.47,17.28,8.57,24.32,15.3,7.04,6.73,12.64,14.94,16.83,24.63,4.18,9.69,6.27,20.75,6.27,33.19v3.67ZM1531.03,314.76c7.34,0,14.12-1.27,20.34-3.82,6.22-2.55,11.67-6.27,16.37-11.17,4.69-4.89,8.36-10.75,11.01-17.59,2.65-6.83,3.98-14.53,3.98-23.1v-3.67c0-8.15-1.33-15.65-3.98-22.48-2.65-6.83-6.32-12.7-11.01-17.59-4.69-4.89-10.2-8.72-16.52-11.47-6.32-2.75-13.05-4.13-20.19-4.13s-13.87,1.38-20.19,4.13c-6.32,2.75-11.83,6.58-16.52,11.47-4.69,4.89-8.36,10.76-11.01,17.59-2.65,6.84-3.98,14.33-3.98,22.48v3.67c0,8.57,1.32,16.27,3.98,23.1,2.65,6.84,6.32,12.7,11.01,17.59,4.69,4.89,10.14,8.62,16.37,11.17,6.22,2.55,13,3.82,20.34,3.82Z"/>
  </g>
</svg>